<svg width="102" height="16" viewBox="0 0 102 16" fill="none" xmlns="http://www.w3.org/2000/svg">
<g clip-path="url(#clip0_1_1262)">
<path d="M5.03344 14.5672C11.0697 14.5672 14.3722 9.78914 14.3722 5.64685C14.3722 5.51253 14.3691 5.37522 14.3628 5.24089C15.0052 4.79711 15.5597 4.24742 16 3.61765C15.4017 3.87193 14.7664 4.03799 14.1159 4.11018C14.8009 3.71802 15.3137 3.10195 15.5594 2.37619C14.915 2.74094 14.2104 2.99824 13.4756 3.13707C12.9806 2.6346 12.326 2.30191 11.6131 2.19042C10.9003 2.07894 10.1688 2.19488 9.53183 2.52032C8.89486 2.84575 8.38787 3.36255 8.08923 3.99082C7.7906 4.6191 7.71695 5.32384 7.87969 5.9961C6.575 5.93356 5.29862 5.60982 4.13332 5.04587C2.96802 4.48191 1.9398 3.69033 1.11531 2.72245C0.696266 3.41257 0.568038 4.2292 0.756687 5.00638C0.945337 5.78356 1.43671 6.46297 2.13094 6.90653C1.60975 6.89072 1.09998 6.75668 0.64375 6.51549V6.55429C0.643283 7.27852 0.905399 7.98055 1.38554 8.54105C1.86568 9.10155 2.53422 9.48593 3.2775 9.62885C2.7947 9.75502 2.28799 9.77341 1.79656 9.68258C2.0063 10.3054 2.41438 10.8502 2.96385 11.2408C3.51331 11.6314 4.17675 11.8485 4.86156 11.8616C3.69895 12.734 2.26278 13.2071 0.784375 13.2049C0.522191 13.2045 0.260266 13.1891 0 13.1589C1.5019 14.0793 3.24902 14.5681 5.03344 14.5672Z" fill="white"/>
</g>
<g clip-path="url(#clip1_1_1262)">
<path d="M50.6641 2.09288C52.8016 2.09288 53.0547 2.10184 53.8953 2.13766C54.6766 2.17049 55.0984 2.29586 55.3797 2.40034C55.7516 2.53765 56.0203 2.70481 56.2984 2.97047C56.5797 3.23912 56.7516 3.49285 56.8953 3.84806C57.0047 4.11671 57.1359 4.52267 57.1703 5.26594C57.2078 6.07189 57.2172 6.31367 57.2172 8.35243C57.2172 10.3942 57.2078 10.636 57.1703 11.4389C57.1359 12.1852 57.0047 12.5881 56.8953 12.8568C56.7516 13.212 56.5766 13.4687 56.2984 13.7344C56.0172 14.003 55.7516 14.1672 55.3797 14.3045C55.0984 14.409 54.6734 14.5344 53.8953 14.5672C53.0516 14.603 52.7984 14.612 50.6641 14.612C48.5266 14.612 48.2734 14.603 47.4328 14.5672C46.6516 14.5344 46.2297 14.409 45.9484 14.3045C45.5766 14.1672 45.3078 14 45.0297 13.7344C44.7484 13.4657 44.5766 13.212 44.4328 12.8568C44.3234 12.5881 44.1922 12.1822 44.1578 11.4389C44.1203 10.633 44.1109 10.3912 44.1109 8.35243C44.1109 6.31069 44.1203 6.0689 44.1578 5.26594C44.1922 4.51969 44.3234 4.11671 44.4328 3.84806C44.5766 3.49285 44.7516 3.23614 45.0297 2.97047C45.3109 2.70182 45.5766 2.53765 45.9484 2.40034C46.2297 2.29586 46.6547 2.17049 47.4328 2.13766C48.2734 2.10184 48.5266 2.09288 50.6641 2.09288ZM50.6641 0.716797C48.4922 0.716797 48.2203 0.725752 47.3672 0.761572C46.5172 0.797392 45.9328 0.928732 45.4266 1.11679C44.8984 1.3138 44.4516 1.57349 44.0078 2.00035C43.5609 2.42422 43.2891 2.85107 43.0828 3.35255C42.8859 3.83911 42.7484 4.39432 42.7109 5.20624C42.6734 6.02413 42.6641 6.28382 42.6641 8.3584C42.6641 10.433 42.6734 10.6927 42.7109 11.5076C42.7484 12.3195 42.8859 12.8777 43.0828 13.3613C43.2891 13.8657 43.5609 14.2926 44.0078 14.7164C44.4516 15.1403 44.8984 15.403 45.4234 15.597C45.9328 15.7851 46.5141 15.9164 47.3641 15.9522C48.2172 15.9881 48.4891 15.997 50.6609 15.997C52.8328 15.997 53.1047 15.9881 53.9578 15.9522C54.8078 15.9164 55.3922 15.7851 55.8984 15.597C56.4234 15.403 56.8703 15.1403 57.3141 14.7164C57.7578 14.2926 58.0328 13.8657 58.2359 13.3642C58.4328 12.8777 58.5703 12.3225 58.6078 11.5106C58.6453 10.6957 58.6547 10.436 58.6547 8.36138C58.6547 6.28681 58.6453 6.02711 58.6078 5.21221C58.5703 4.40029 58.4328 3.84209 58.2359 3.35852C58.0391 2.85107 57.7672 2.42422 57.3203 2.00035C56.8766 1.57648 56.4297 1.3138 55.9047 1.11977C55.3953 0.931717 54.8141 0.800377 53.9641 0.764557C53.1078 0.725752 52.8359 0.716797 50.6641 0.716797Z" fill="white"/>
<path d="M50.6641 4.43311C48.3953 4.43311 46.5547 6.19127 46.5547 8.35838C46.5547 10.5255 48.3953 12.2837 50.6641 12.2837C52.9328 12.2837 54.7734 10.5255 54.7734 8.35838C54.7734 6.19127 52.9328 4.43311 50.6641 4.43311ZM50.6641 10.9046C49.1922 10.9046 47.9984 9.76432 47.9984 8.35838C47.9984 6.95245 49.1922 5.81218 50.6641 5.81218C52.1359 5.81218 53.3297 6.95245 53.3297 8.35838C53.3297 9.76432 52.1359 10.9046 50.6641 10.9046Z" fill="white"/>
<path d="M55.8953 4.27791C55.8953 4.78536 55.4641 5.1943 54.9359 5.1943C54.4047 5.1943 53.9766 4.78237 53.9766 4.27791C53.9766 3.77046 54.4078 3.36151 54.9359 3.36151C55.4641 3.36151 55.8953 3.77344 55.8953 4.27791Z" fill="white"/>
</g>
<g clip-path="url(#clip2_1_1262)">
<path d="M100.148 0.716797H86.5133C85.8602 0.716797 85.332 1.20932 85.332 1.81826V14.8955C85.332 15.5045 85.8602 16 86.5133 16H100.148C100.801 16 101.332 15.5045 101.332 14.8985V1.81826C101.332 1.20932 100.801 0.716797 100.148 0.716797ZM90.0789 13.7404H87.7039V6.44501H90.0789V13.7404ZM88.8914 5.45101C88.1289 5.45101 87.5133 4.86296 87.5133 4.13761C87.5133 3.41225 88.1289 2.82421 88.8914 2.82421C89.6508 2.82421 90.2664 3.41225 90.2664 4.13761C90.2664 4.85998 89.6508 5.45101 88.8914 5.45101ZM98.9664 13.7404H96.5945V10.1942C96.5945 9.34942 96.5789 8.25989 95.3602 8.25989C94.1258 8.25989 93.9383 9.18226 93.9383 10.1345V13.7404H91.5695V6.44501H93.8445V7.442H93.8758C94.1914 6.86888 94.9664 6.26293 96.1195 6.26293C98.5227 6.26293 98.9664 7.77334 98.9664 9.73747V13.7404Z" fill="white"/>
</g>
<defs>
<clipPath id="clip0_1_1262">
<rect width="16" height="15.2832" fill="white" transform="translate(0 0.716797)"/>
</clipPath>
<clipPath id="clip1_1_1262">
<rect width="16" height="15.2832" fill="white" transform="translate(42.6641 0.716797)"/>
</clipPath>
<clipPath id="clip2_1_1262">
<rect width="16" height="15.2832" fill="white" transform="translate(85.332 0.716797)"/>
</clipPath>
</defs>
</svg>
